<mxfile host="65bd71144e">
    <diagram id="aDAZqsiUujB9NMO89ZCm" name="Page-1">
        <mxGraphModel dx="697" dy="796" grid="1" gridSize="10" guides="1" tooltips="1" connect="1" arrows="1" fold="1" page="1" pageScale="1" pageWidth="850" pageHeight="1100" math="0" shadow="0">
            <root>
                <mxCell id="0"/>
                <mxCell id="1" parent="0"/>
                <mxCell id="r-VRwInlAhkKPYtPZLt6-1" value="USB" style="text;html=1;align=center;verticalAlign=middle;resizable=0;points=[];autosize=1;strokeColor=none;fillColor=none;" parent="1" vertex="1">
                    <mxGeometry x="120" y="80" width="50" height="30" as="geometry"/>
                </mxCell>
                <mxCell id="r-VRwInlAhkKPYtPZLt6-2" value="" style="endArrow=none;html=1;rounded=0;strokeColor=#FF0000;shadow=0;" parent="1" edge="1">
                    <mxGeometry width="50" height="50" relative="1" as="geometry">
                        <mxPoint x="190" y="40" as="sourcePoint"/>
                        <mxPoint x="390" y="40" as="targetPoint"/>
                    </mxGeometry>
                </mxCell>
                <mxCell id="r-VRwInlAhkKPYtPZLt6-3" value="" style="endArrow=none;html=1;rounded=0;shadow=0;" parent="1" edge="1">
                    <mxGeometry width="50" height="50" relative="1" as="geometry">
                        <mxPoint x="190" y="80" as="sourcePoint"/>
                        <mxPoint x="390" y="80" as="targetPoint"/>
                    </mxGeometry>
                </mxCell>
                <mxCell id="r-VRwInlAhkKPYtPZLt6-4" value="" style="endArrow=none;html=1;rounded=0;strokeColor=#00FF00;shadow=0;" parent="1" edge="1">
                    <mxGeometry width="50" height="50" relative="1" as="geometry">
                        <mxPoint x="190" y="120" as="sourcePoint"/>
                        <mxPoint x="390" y="120" as="targetPoint"/>
                    </mxGeometry>
                </mxCell>
                <mxCell id="r-VRwInlAhkKPYtPZLt6-5" value="" style="endArrow=none;html=1;rounded=0;strokeColor=#CCCCCC;shadow=0;sketch=0;" parent="1" edge="1">
                    <mxGeometry width="50" height="50" relative="1" as="geometry">
                        <mxPoint x="190" y="160" as="sourcePoint"/>
                        <mxPoint x="390" y="160" as="targetPoint"/>
                    </mxGeometry>
                </mxCell>
                <mxCell id="r-VRwInlAhkKPYtPZLt6-6" value="" style="endArrow=none;html=1;rounded=0;strokeColor=#FFFF00;shadow=0;" parent="1" edge="1">
                    <mxGeometry width="50" height="50" relative="1" as="geometry">
                        <mxPoint x="390" y="40" as="sourcePoint"/>
                        <mxPoint x="585" y="40" as="targetPoint"/>
                    </mxGeometry>
                </mxCell>
                <mxCell id="r-VRwInlAhkKPYtPZLt6-7" value="" style="endArrow=none;html=1;rounded=0;strokeColor=#663300;shadow=0;" parent="1" edge="1">
                    <mxGeometry width="50" height="50" relative="1" as="geometry">
                        <mxPoint x="390" y="80" as="sourcePoint"/>
                        <mxPoint x="585" y="80" as="targetPoint"/>
                    </mxGeometry>
                </mxCell>
                <mxCell id="r-VRwInlAhkKPYtPZLt6-8" value="" style="endArrow=none;html=1;rounded=0;strokeColor=#000000;shadow=0;" parent="1" edge="1">
                    <mxGeometry width="50" height="50" relative="1" as="geometry">
                        <mxPoint x="390" y="120" as="sourcePoint"/>
                        <mxPoint x="585" y="120" as="targetPoint"/>
                    </mxGeometry>
                </mxCell>
                <mxCell id="r-VRwInlAhkKPYtPZLt6-9" value="" style="endArrow=none;html=1;rounded=0;strokeColor=#FF0000;shadow=0;" parent="1" edge="1">
                    <mxGeometry width="50" height="50" relative="1" as="geometry">
                        <mxPoint x="390" y="160" as="sourcePoint"/>
                        <mxPoint x="585" y="160" as="targetPoint"/>
                    </mxGeometry>
                </mxCell>
                <mxCell id="r-VRwInlAhkKPYtPZLt6-11" value="" style="endArrow=none;html=1;rounded=0;strokeColor=#CC6600;shadow=0;" parent="1" edge="1">
                    <mxGeometry width="50" height="50" relative="1" as="geometry">
                        <mxPoint x="445" y="200" as="sourcePoint"/>
                        <mxPoint x="585" y="200" as="targetPoint"/>
                    </mxGeometry>
                </mxCell>
                <mxCell id="r-VRwInlAhkKPYtPZLt6-12" value="KS05M05001&amp;nbsp; Webcam" style="text;html=1;align=center;verticalAlign=middle;resizable=0;points=[];autosize=1;strokeColor=none;fillColor=none;" parent="1" vertex="1">
                    <mxGeometry x="593" y="85" width="140" height="20" as="geometry"/>
                </mxCell>
                <mxCell id="6XloEQ91ZsAWJRgqMOj5-1" value="white" style="text;html=1;align=center;verticalAlign=middle;resizable=0;points=[];autosize=1;strokeColor=none;fillColor=none;shadow=0;" parent="1" vertex="1">
                    <mxGeometry x="235" y="135" width="50" height="30" as="geometry"/>
                </mxCell>
                <mxCell id="6XloEQ91ZsAWJRgqMOj5-2" value="dark brown" style="text;html=1;align=center;verticalAlign=middle;resizable=0;points=[];autosize=1;strokeColor=none;fillColor=none;shadow=0;" parent="1" vertex="1">
                    <mxGeometry x="470" y="55" width="80" height="30" as="geometry"/>
                </mxCell>
                <mxCell id="6XloEQ91ZsAWJRgqMOj5-3" value="light brown" style="text;html=1;align=center;verticalAlign=middle;resizable=0;points=[];autosize=1;strokeColor=none;fillColor=none;shadow=0;" parent="1" vertex="1">
                    <mxGeometry x="474" y="175" width="80" height="30" as="geometry"/>
                </mxCell>
            </root>
        </mxGraphModel>
    </diagram>
</mxfile>